<?xml version="1.0" encoding="UTF-8" standalone="no"?>
<!-- Created with Inkscape (http://www.inkscape.org/) -->

<svg
   xmlns:dc="http://purl.org/dc/elements/1.1/"
   xmlns:cc="http://creativecommons.org/ns#"
   xmlns:rdf="http://www.w3.org/1999/02/22-rdf-syntax-ns#"
   xmlns:svg="http://www.w3.org/2000/svg"
   xmlns="http://www.w3.org/2000/svg"
   xmlns:sodipodi="http://sodipodi.sourceforge.net/DTD/sodipodi-0.dtd"
   xmlns:inkscape="http://www.inkscape.org/namespaces/inkscape"
   width="96"
   height="96"
   id="svg2"
   version="1.1"
   inkscape:version="0.48.5 r10040"
   sodipodi:docname="delete.svg">
  <defs
     id="defs4">
    <clipPath
       clipPathUnits="userSpaceOnUse"
       id="clipPath3879">
      <rect
         style="fill:#363682;fill-opacity:1;stroke:#ca7c7c;stroke-width:4.5;stroke-linecap:round;stroke-linejoin:round;stroke-miterlimit:4;stroke-opacity:1;stroke-dasharray:none;stroke-dashoffset:0"
         id="rect3881"
         width="173"
         height="636"
         x="-2611"
         y="973.36218" />
    </clipPath>
  </defs>
  <sodipodi:namedview
     id="base"
     pagecolor="#ffffff"
     bordercolor="#666666"
     borderopacity="1.0"
     inkscape:pageopacity="0.0"
     inkscape:pageshadow="2"
     inkscape:zoom="4"
     inkscape:cx="45.790772"
     inkscape:cy="54.812294"
     inkscape:document-units="px"
     inkscape:current-layer="layer1"
     showgrid="false"
     inkscape:window-width="1920"
     inkscape:window-height="1027"
     inkscape:window-x="0"
     inkscape:window-y="0"
     inkscape:window-maximized="1" />
  <metadata
     id="metadata7">
    <rdf:RDF>
      <cc:Work
         rdf:about="">
        <dc:format>image/svg+xml</dc:format>
        <dc:type
           rdf:resource="http://purl.org/dc/dcmitype/StillImage" />
        <dc:title></dc:title>
      </cc:Work>
    </rdf:RDF>
  </metadata>
  <g
     inkscape:label="Layer 1"
     inkscape:groupmode="layer"
     id="layer1"
     transform="translate(0,-956.36218)">
    <g
       id="g3131"
       transform="matrix(0.70710678,-0.70710678,0.70710678,0.70710678,-699.45935,326.31498)">
      <path
         inkscape:connector-curvature="0"
         id="path3897"
         d="m 77.38447,1041.0934 a 11.14898,11.152669 45 0 0 -0.2438,-15.8173 l -11.7255,-11.7255 11.7787,-11.7787 a 11.14898,11.152669 45 1 0 -15.7655,-15.76549 l -11.7787,11.7787 -11.77481,-11.7748 A 11.14898,11.152669 45 1 0 22.10418,1001.781 l 11.77483,11.7748 -11.77873,11.7787 a 11.14898,11.152669 45 1 0 15.76547,15.7654 l 11.77872,-11.7787 11.7256,11.7256 a 11.14898,11.152669 45 0 0 16.0144,0.047 z"
         style="font-size:medium;font-style:normal;font-variant:normal;font-weight:normal;font-stretch:normal;text-indent:0;text-align:start;text-decoration:none;line-height:normal;letter-spacing:normal;word-spacing:normal;text-transform:none;direction:ltr;block-progression:tb;writing-mode:lr-tb;text-anchor:start;baseline-shift:baseline;color:#000000;fill:#333333;fill-opacity:1;fill-rule:nonzero;stroke:#333333;stroke-width:6;stroke-miterlimit:4;stroke-opacity:1;stroke-dasharray:none;marker:none;visibility:visible;display:inline;overflow:visible;enable-background:accumulate;font-family:Sans;-inkscape-font-specification:Sans" />
      <path
         style="font-size:medium;font-style:normal;font-variant:normal;font-weight:normal;font-stretch:normal;text-indent:0;text-align:start;text-decoration:none;line-height:normal;letter-spacing:normal;word-spacing:normal;text-transform:none;direction:ltr;block-progression:tb;writing-mode:lr-tb;text-anchor:start;baseline-shift:baseline;color:#000000;fill:#58bf58;fill-opacity:1;fill-rule:nonzero;stroke:#315b31;stroke-width:8;stroke-miterlimit:4;stroke-opacity:1;stroke-dasharray:none;marker:none;visibility:visible;display:inline;overflow:visible;enable-background:accumulate;font-family:Sans;-inkscape-font-specification:Sans"
         d="m 75.738033,1031.9011 a 11.14898,11.152669 45 0 0 -0.2438,-15.8173 l -11.7255,-11.7256 11.7787,-11.77867 a 11.14898,11.152669 45 1 0 -15.7655,-15.7655 l -11.7787,11.7787 -11.77483,-11.7748 a 11.14898,11.152669 45 1 0 -15.77068,15.7707 l 11.77483,11.77477 -11.77873,11.7788 a 11.14898,11.152669 45 1 0 15.76547,15.7654 l 11.77874,-11.7787 11.7255,11.7256 a 11.14898,11.152669 45 0 0 16.0145,0.047 z"
         id="path3811"
         inkscape:connector-curvature="0" />
    </g>
  </g>
</svg>
