<?xml version="1.0" encoding="UTF-8" standalone="no"?>
<!-- Created with Inkscape (http://www.inkscape.org/) -->

<svg
   xmlns:dc="http://purl.org/dc/elements/1.1/"
   xmlns:cc="http://creativecommons.org/ns#"
   xmlns:rdf="http://www.w3.org/1999/02/22-rdf-syntax-ns#"
   xmlns:svg="http://www.w3.org/2000/svg"
   xmlns="http://www.w3.org/2000/svg"
   xmlns:sodipodi="http://sodipodi.sourceforge.net/DTD/sodipodi-0.dtd"
   xmlns:inkscape="http://www.inkscape.org/namespaces/inkscape"
   width="96"
   height="96"
   id="svg2"
   version="1.1"
   inkscape:version="0.48.5 r10040"
   sodipodi:docname="delete.svg">
  <defs
     id="defs4">
    <clipPath
       clipPathUnits="userSpaceOnUse"
       id="clipPath3879">
      <rect
         style="fill:#363682;fill-opacity:1;stroke:#ca7c7c;stroke-width:4.5;stroke-linecap:round;stroke-linejoin:round;stroke-miterlimit:4;stroke-opacity:1;stroke-dasharray:none;stroke-dashoffset:0"
         id="rect3881"
         width="173"
         height="636"
         x="-2611"
         y="973.36218" />
    </clipPath>
  </defs>
  <sodipodi:namedview
     id="base"
     pagecolor="#ffffff"
     bordercolor="#666666"
     borderopacity="1.0"
     inkscape:pageopacity="0.0"
     inkscape:pageshadow="2"
     inkscape:zoom="2"
     inkscape:cx="-77.977226"
     inkscape:cy="103.0802"
     inkscape:document-units="px"
     inkscape:current-layer="layer1"
     showgrid="false"
     inkscape:window-width="1920"
     inkscape:window-height="1027"
     inkscape:window-x="0"
     inkscape:window-y="0"
     inkscape:window-maximized="1" />
  <metadata
     id="metadata7">
    <rdf:RDF>
      <cc:Work
         rdf:about="">
        <dc:format>image/svg+xml</dc:format>
        <dc:type
           rdf:resource="http://purl.org/dc/dcmitype/StillImage" />
        <dc:title></dc:title>
      </cc:Work>
    </rdf:RDF>
  </metadata>
  <g
     inkscape:label="Layer 1"
     inkscape:groupmode="layer"
     id="layer1"
     transform="translate(0,-956.36218)">
    <path
       style="font-size:medium;font-style:normal;font-variant:normal;font-weight:normal;font-stretch:normal;text-indent:0;text-align:start;text-decoration:none;line-height:normal;letter-spacing:normal;word-spacing:normal;text-transform:none;direction:ltr;block-progression:tb;writing-mode:lr-tb;text-anchor:start;baseline-shift:baseline;color:#000000;fill:#333333;fill-opacity:1;fill-rule:nonzero;stroke:#333333;stroke-width:6;stroke-miterlimit:4;stroke-opacity:1;stroke-dasharray:none;marker:none;visibility:visible;display:inline;overflow:visible;enable-background:accumulate;font-family:Sans;-inkscape-font-specification:Sans"
       d="m 24.858895,979.06447 a 11.14898,11.152669 45 0 0 0.24376,15.81731 l 11.72556,11.72552 -11.77873,11.7787 a 11.14898,11.152669 45 1 0 15.76546,15.7655 l 11.77873,-11.7787 11.77483,11.7748 a 11.14898,11.152669 45 1 0 15.77068,-15.7707 l -11.77483,-11.7748 11.77873,-11.7787 a 11.14898,11.152669 45 1 0 -15.76547,-15.76546 l -11.77872,11.77872 -11.72556,-11.72556 a 11.14898,11.152669 45 0 0 -16.01444,-0.0466 z"
       id="path3897"
       inkscape:connector-curvature="0" />
    <path
       inkscape:connector-curvature="0"
       id="path3811"
       d="m 20.262701,976.82183 a 11.14898,11.152669 45 0 0 0.24376,15.81731 l 11.72556,11.72556 -11.77873,11.7787 a 11.14898,11.152669 45 1 0 15.76546,15.7655 l 11.77873,-11.7787 11.77483,11.7748 a 11.14898,11.152669 45 1 0 15.77068,-15.7707 l -11.77483,-11.7748 11.77873,-11.77874 A 11.14898,11.152669 45 1 0 59.781421,976.8153 l -11.77872,11.77872 -11.72556,-11.72556 a 11.14898,11.152669 45 0 0 -16.01444,-0.0466 z"
       style="font-size:medium;font-style:normal;font-variant:normal;font-weight:normal;font-stretch:normal;text-indent:0;text-align:start;text-decoration:none;line-height:normal;letter-spacing:normal;word-spacing:normal;text-transform:none;direction:ltr;block-progression:tb;writing-mode:lr-tb;text-anchor:start;baseline-shift:baseline;color:#000000;fill:#bb5858;fill-opacity:1;fill-rule:nonzero;stroke:#773d3d;stroke-width:8;stroke-miterlimit:4;stroke-opacity:1;stroke-dasharray:none;marker:none;visibility:visible;display:inline;overflow:visible;enable-background:accumulate;font-family:Sans;-inkscape-font-specification:Sans" />
  </g>
</svg>
